<svg width="84" height="84" viewBox="0 0 84 84" fill="none" xmlns="http://www.w3.org/2000/svg"><path d="M71.3092 2.01434C34.916 31.2901 -21.7554 76.9495 82.1869 51.1654" stroke="#F5F5F5" stroke-linecap="round"/><path d="M77.3524 2.41724C51.0311 26.5899 4.83448 68.0863 82.1869 45.1222" stroke="#F5F5F5" stroke-linecap="round"/><path d="M81.7841 8.05756C63.3861 24.9784 37.6288 55.3554 81.7841 39.8849" stroke="#F5F5F5" stroke-linecap="round"/><path d="M82.1869 21.3525C74.5322 27.3957 59.2229 44.3166 82.1869 33.036" stroke="#F5F5F5" stroke-linecap="round"/><path d="M2.0144 59.2229C0.805767 53.8512 6.28492 40.9323 20.1439 32.2301C37.4676 21.3525 40.2878 26.5899 60.8345 2.01434" stroke="#F5F5F5" stroke-linecap="round"/><path d="M2.0144 35.4532C27.7986 24.1726 66.1525 1.04749 13.295 2.01439" stroke="#F5F5F5" stroke-linecap="round"/><path d="M7.65461 2.41724C23.7697 5.37167 51.5683 10.8777 1.61145 30.2158" stroke="#F5F5F5" stroke-linecap="round"/><path d="M1.61145 10.8777C15.7122 11.952 38.6762 12.4892 1.61145 22.1583" stroke="#F5F5F5" stroke-linecap="round"/><path d="M81.7841 61.2373C72.3836 61.2373 48.5064 61.6402 39.4819 69.6978C30.4575 77.7553 10.7433 65.1318 1.61145 57.6115" stroke="#F5F5F5" stroke-linecap="round"/><path d="M47.9424 81.7841C51.2997 75.0695 54.7913 62.0431 81.7841 66.8777" stroke="#F5F5F5" stroke-linecap="round"/><path d="M61.6403 81.7841C62.3117 75.3381 64.4604 64.0575 81.7841 72.115" stroke="#F5F5F5" stroke-linecap="round"/><path d="M2.41724 70.5035C12.0863 70.7721 36.2589 75.3381 14.5036 81.7841" stroke="#F5F5F5" stroke-linecap="round"/><path d="M2.0144 76.1438C8.72903 74.9352 24.1727 74.9352 9.2662 81.7841" stroke="#F5F5F5" stroke-linecap="round"/><rect x="2" y="2" width="79.7985" height="79.7985" rx="9" stroke="#F5F5F5" stroke-width="4"/></svg>